<svg version="1.0" xmlns="http://www.w3.org/2000/svg"
            width="120px" height="120px" viewBox="0 0 1280.000000 1280.000000"
            preserveAspectRatio="xMidYMid meet">
            <g transform="translate(0.000000,1280.000000) scale(0.100000,-0.100000)"
            fill="#000000" stroke="none">
            <path d="M6110 12794 c-137 -9 -342 -26 -420 -35 -1670 -194 -3226 -1044
            -4256 -2324 -729 -907 -1206 -2001 -1369 -3139 -48 -339 -59 -512 -59 -896 0
            -384 11 -557 59 -896 126 -878 441 -1737 918 -2504 415 -666 927 -1227 1550
            -1696 851 -642 1883 -1075 2937 -1233 350 -52 537 -65 930 -65 393 0 580 13
            930 65 1583 237 3053 1073 4036 2294 729 907 1206 2001 1369 3139 48 339 59
            512 59 896 0 384 -11 557 -59 896 -126 878 -441 1737 -918 2504 -488 783
            -1116 1427 -1887 1933 -900 590 -1897 939 -2985 1043 -149 14 -710 26 -835 18z
            m627 -2634 c311 -608 1018 -1973 1570 -3033 553 -1060 1004 -1929 1002 -1931
            -4 -3 -489 142 -2104 630 l-920 278 -95 1 c-79 0 -103 -4 -142 -23 -146 -72
            -232 -239 -198 -387 10 -43 304 -699 1806 -4033 140 -309 254 -565 254 -568 0
            -3 -298 374 -663 838 -1626 2069 -2256 2869 -2428 3088 -102 129 -468 595
            -813 1035 -346 440 -641 813 -655 829 l-26 29 43 -7 c23 -3 808 -150 1745
            -325 936 -175 1718 -321 1737 -324 49 -7 145 10 192 34 99 51 171 151 187 260
            11 77 7 100 -53 349 -26 107 -74 303 -106 435 -75 311 -95 393 -509 2110 -192
            798 -366 1518 -386 1600 -20 83 -47 195 -61 250 -13 55 -26 111 -29 125 -7 30
            -43 99 652 -1260z"/>
            </g>
        </svg>